<svg width="56" height="56" viewBox="0 0 56 56" fill="none" xmlns="http://www.w3.org/2000/svg">
<rect width="56" height="56" rx="4" fill="#006E25" fill-opacity="0.1"/>
<path d="M19.25 41.75V40.5C19.25 37.6042 19.8542 35.2552 21.0625 33.4531C22.2708 31.651 23.9375 29.8333 26.0625 28C23.9375 26.1667 22.2708 24.349 21.0625 22.5469C19.8542 20.7448 19.25 18.3958 19.25 15.5V14.25H21.75V15.5C21.75 15.7292 21.7552 15.9427 21.7656 16.1406C21.776 16.3385 21.7917 16.5417 21.8125 16.75H34.1875C34.2083 16.5417 34.224 16.3385 34.2344 16.1406C34.2448 15.9427 34.25 15.7292 34.25 15.5V14.25H36.75V15.5C36.75 18.3958 36.1458 20.7448 34.9375 22.5469C33.7292 24.349 32.0625 26.1667 29.9375 28C32.0625 29.8333 33.7292 31.651 34.9375 33.4531C36.1458 35.2552 36.75 37.6042 36.75 40.5V41.75H34.25V40.5C34.25 40.2708 34.2448 40.0573 34.2344 39.8594C34.224 39.6615 34.2083 39.4583 34.1875 39.25H21.8125C21.7917 39.4583 21.776 39.6615 21.7656 39.8594C21.7552 40.0573 21.75 40.2708 21.75 40.5V41.75H19.25ZM23.5625 21.75H32.4375C32.7083 21.3542 32.9427 20.9583 33.1406 20.5625C33.3385 20.1667 33.5208 19.7292 33.6875 19.25H22.3125C22.4792 19.7083 22.6615 20.1406 22.8594 20.5469C23.0573 20.9531 23.2917 21.3542 23.5625 21.75ZM28 26.375C28.4167 26.0208 28.8229 25.6667 29.2188 25.3125C29.6146 24.9583 29.9896 24.6042 30.3438 24.25H25.6562C26.0104 24.6042 26.3854 24.9583 26.7812 25.3125C27.1771 25.6667 27.5833 26.0208 28 26.375ZM25.6562 31.75H30.3438C29.9896 31.3958 29.6146 31.0417 29.2188 30.6875C28.8229 30.3333 28.4167 29.9792 28 29.625C27.5833 29.9792 27.1771 30.3333 26.7812 30.6875C26.3854 31.0417 26.0104 31.3958 25.6562 31.75ZM22.3125 36.75H33.6875C33.5208 36.2917 33.3385 35.8594 33.1406 35.4531C32.9427 35.0469 32.7083 34.6458 32.4375 34.25H23.5625C23.2917 34.6458 23.0573 35.0417 22.8594 35.4375C22.6615 35.8333 22.4792 36.2708 22.3125 36.75Z" fill="#191C1D"/>
</svg>
