<svg width="48" height="48" viewBox="0 0 48 48" fill="none" xmlns="http://www.w3.org/2000/svg">
<rect width="48" height="48" rx="12" fill="#80F98B"/>
<path d="M21.675 25.2L22.55 22.35L20.25 20.5H23.1L24 17.7L24.9 20.5H27.75L25.425 22.35L26.3 25.2L24 23.425L21.675 25.2ZM18 34.5V26.775C17.3667 26.075 16.875 25.275 16.525 24.375C16.175 23.475 16 22.5167 16 21.5C16 19.2667 16.775 17.375 18.325 15.825C19.875 14.275 21.7667 13.5 24 13.5C26.2333 13.5 28.125 14.275 29.675 15.825C31.225 17.375 32 19.2667 32 21.5C32 22.5167 31.825 23.475 31.475 24.375C31.125 25.275 30.6333 26.075 30 26.775V34.5L24 32.5L18 34.5ZM24 27.5C25.6667 27.5 27.0833 26.9167 28.25 25.75C29.4167 24.5833 30 23.1667 30 21.5C30 19.8333 29.4167 18.4167 28.25 17.25C27.0833 16.0833 25.6667 15.5 24 15.5C22.3333 15.5 20.9167 16.0833 19.75 17.25C18.5833 18.4167 18 19.8333 18 21.5C18 23.1667 18.5833 24.5833 19.75 25.75C20.9167 26.9167 22.3333 27.5 24 27.5ZM20 31.525L24 30.5L28 31.525V28.425C27.4167 28.7583 26.7875 29.0208 26.1125 29.2125C25.4375 29.4042 24.7333 29.5 24 29.5C23.2667 29.5 22.5625 29.4042 21.8875 29.2125C21.2125 29.0208 20.5833 28.7583 20 28.425V31.525Z" fill="#007327"/>
</svg>
